<mxfile host="app.diagrams.net" modified="2024-05-12T13:26:46.806Z" agent="Mozilla/5.0 (Windows NT 10.0; Win64; x64) AppleWebKit/537.36 (KHTML, like Gecko) Chrome/124.0.0.0 Safari/537.36" etag="qsQuZOev_0LfZko94fnu" version="24.4.0" type="github">
  <diagram name="Page-1" id="LerU0bCvFQjhh9iSL9_E">
    <mxGraphModel dx="1723" dy="743" grid="1" gridSize="10" guides="1" tooltips="1" connect="1" arrows="1" fold="1" page="1" pageScale="1" pageWidth="827" pageHeight="1169" math="0" shadow="0">
      <root>
        <mxCell id="0" />
        <mxCell id="1" parent="0" />
        <mxCell id="JFElshMfYDLleOXP6mhj-1" value="Document Submission Service" style="whiteSpace=wrap;html=1;aspect=fixed;" vertex="1" parent="1">
          <mxGeometry x="340" y="60" width="80" height="80" as="geometry" />
        </mxCell>
        <mxCell id="JFElshMfYDLleOXP6mhj-2" value="Eligibility Verification Service" style="whiteSpace=wrap;html=1;aspect=fixed;" vertex="1" parent="1">
          <mxGeometry x="340" y="170" width="80" height="80" as="geometry" />
        </mxCell>
        <mxCell id="JFElshMfYDLleOXP6mhj-4" value="Card Issuance Service" style="whiteSpace=wrap;html=1;aspect=fixed;" vertex="1" parent="1">
          <mxGeometry x="340" y="270" width="80" height="80" as="geometry" />
        </mxCell>
        <mxCell id="JFElshMfYDLleOXP6mhj-5" value="Eligibility Verification Service" style="whiteSpace=wrap;html=1;aspect=fixed;" vertex="1" parent="1">
          <mxGeometry x="334" y="370" width="80" height="80" as="geometry" />
        </mxCell>
        <mxCell id="JFElshMfYDLleOXP6mhj-6" value="Status Tracking Service" style="whiteSpace=wrap;html=1;aspect=fixed;" vertex="1" parent="1">
          <mxGeometry x="580" y="260" width="80" height="80" as="geometry" />
        </mxCell>
        <mxCell id="JFElshMfYDLleOXP6mhj-7" value="Security Service" style="whiteSpace=wrap;html=1;aspect=fixed;" vertex="1" parent="1">
          <mxGeometry x="340" y="480" width="80" height="80" as="geometry" />
        </mxCell>
        <mxCell id="JFElshMfYDLleOXP6mhj-8" value="Notification Service" style="whiteSpace=wrap;html=1;aspect=fixed;" vertex="1" parent="1">
          <mxGeometry x="530" y="60" width="80" height="80" as="geometry" />
        </mxCell>
      </root>
    </mxGraphModel>
  </diagram>
</mxfile>
